<svg xmlns="http://www.w3.org/2000/svg" width="47.997" height="48.002" viewBox="0 0 47.997 48.002">
  <g>
    <circle cx="23.998" cy="38.546" r="0.728" fill="#1a171b"/>
    <path d="M44.361,4.852H43.149V.727A.729.729,0,0,0,42.421,0h-15.2A3.945,3.945,0,0,0,24,1.682,3.945,3.945,0,0,0,20.773,0H5.575a.728.728,0,0,0-.727.727V4.852H3.636A3.64,3.64,0,0,0,0,8.487V38.546a3.64,3.64,0,0,0,3.636,3.637H16.2l-1.455,4.363H9.454a.728.728,0,0,0,0,1.456H38.543a.728.728,0,1,0,0-1.456H33.249L31.8,42.183H44.361A3.64,3.64,0,0,0,48,38.546V8.487A3.64,3.64,0,0,0,44.361,4.852Zm-19.636-.9a2.5,2.5,0,0,1,2.5-2.5H41.694V29.744H27.223a3.938,3.938,0,0,0-2.5.893V3.953ZM6.3,1.455H20.773a2.5,2.5,0,0,1,2.5,2.5V30.637a3.925,3.925,0,0,0-2.5-.893H6.3ZM1.454,8.486A2.185,2.185,0,0,1,3.636,6.3H4.848V30.47a.729.729,0,0,0,.727.729h15.2a2.5,2.5,0,0,1,2.5,2.5V34.91H1.454V8.486ZM16.28,46.545l1.455-4.363H30.261l1.455,4.363Zm30.263-8a2.185,2.185,0,0,1-2.182,2.182H3.635a2.185,2.185,0,0,1-2.182-2.182V36.363H46.542v2.182Zm0-3.635H24.726V33.7a2.5,2.5,0,0,1,2.5-2.5h15.2a.729.729,0,0,0,.728-.729V6.3h1.212a2.185,2.185,0,0,1,2.182,2.182V34.91Z" fill="#1a171b"/>
    <path d="M19.8,4.848h-4.69a.728.728,0,1,0,0,1.456H19.8a.728.728,0,0,0,0-1.456Z" fill="#1a171b"/>
    <path d="M9.454,6.3H12.2a.728.728,0,0,0,0-1.456H9.454a.728.728,0,0,0,0,1.456Z" fill="#1a171b"/>
    <path d="M34.1,6.3h4.123a.728.728,0,1,0,0-1.456H34.1a.728.728,0,1,0,0,1.456Z" fill="#1a171b"/>
    <path d="M27.878,6.3h3.316a.728.728,0,1,0,0-1.456H27.878a.728.728,0,1,0,0,1.456Z" fill="#1a171b"/>
    <path d="M9.454,11.152h7.44a.728.728,0,1,0,0-1.456H9.454a.728.728,0,0,0,0,1.456Z" fill="#1a171b"/>
    <path d="M27.878,11.152h8.409a.728.728,0,1,0,0-1.456H27.878a.728.728,0,1,0,0,1.456Z" fill="#1a171b"/>
    <path d="M19.8,14.545H17.214a.728.728,0,1,0,0,1.456H19.8a.728.728,0,0,0,0-1.456Z" fill="#1a171b"/>
    <path d="M9.454,16h4.851a.728.728,0,1,0,0-1.456H9.454a.728.728,0,0,0,0,1.456Z" fill="#1a171b"/>
    <path d="M38.226,14.545h-4.69a.728.728,0,0,0,0,1.456h4.69a.728.728,0,1,0,0-1.456Z" fill="#1a171b"/>
    <path d="M27.878,16h2.75a.728.728,0,0,0,0-1.456h-2.75a.728.728,0,1,0,0,1.456Z" fill="#1a171b"/>
    <path d="M9.454,20.85h5.5a.728.728,0,0,0,0-1.456h-5.5a.728.728,0,0,0,0,1.456Z" fill="#1a171b"/>
    <path d="M38.226,19.4H36.119a.728.728,0,0,0,0,1.456h2.107a.728.728,0,1,0,0-1.456Z" fill="#1a171b"/>
    <path d="M27.878,20.85H33.21a.728.728,0,1,0,0-1.456H27.878a.728.728,0,1,0,0,1.456Z" fill="#1a171b"/>
    <path d="M19.8,24.244H14.788a.727.727,0,0,0,0,1.454H19.8a.727.727,0,0,0,0-1.454Z" fill="#1a171b"/>
    <path d="M11.879,24.244H9.454a.727.727,0,1,0,0,1.454h2.425a.727.727,0,1,0,0-1.454Z" fill="#1a171b"/>
    <path d="M27.878,25.7h5.5a.727.727,0,1,0,0-1.454h-5.5a.727.727,0,1,0,0,1.454Z" fill="#1a171b"/>
  </g>
</svg>
